<?xml version="1.0" standalone="no"?>
<!DOCTYPE svg PUBLIC "-//W3C//DTD SVG 20010904//EN"
 "http://www.w3.org/TR/2001/REC-SVG-20010904/DTD/svg10.dtd">
<svg version="1.0" xmlns="http://www.w3.org/2000/svg"
 width="500.000000pt" height="500.000000pt" viewBox="0 0 500.000000 500.000000"
 preserveAspectRatio="xMidYMid meet">
<metadata>
Created by potrace 1.14, written by Peter Selinger 2001-2017
</metadata>
<g transform="translate(0.000000,500.000000) scale(0.100000,-0.100000)"
fill="#000000" stroke="none">
<path d="M2289 3610 c-104 -31 -233 -132 -303 -238 -72 -109 -90 -162 -90
-273 -1 -93 0 -98 41 -180 46 -93 127 -190 198 -237 51 -34 121 -50 138 -33 8
8 6 11 -9 11 -43 0 -125 53 -192 124 -109 117 -161 247 -146 361 21 160 152
332 317 417 49 25 75 32 122 32 77 1 105 -18 148 -104 31 -62 32 -69 32 -185
-1 -101 -5 -136 -29 -220 -35 -124 -78 -237 -146 -383 -52 -110 -55 -113 -121
-158 -161 -107 -261 -261 -182 -280 63 -16 141 65 276 287 11 19 44 38 111 65
90 37 116 54 81 54 -9 0 -43 -11 -77 -25 -34 -14 -65 -25 -69 -25 -4 0 15 48
42 106 147 313 198 584 139 737 -26 69 -72 124 -117 143 -35 15 -122 17 -164
4z m-46 -1141 c-39 -63 -148 -189 -164 -189 -30 0 12 88 70 148 35 36 117 102
128 102 1 0 -14 -28 -34 -61z"/>
<path d="M3383 3420 c-84 -12 -192 -49 -283 -96 -96 -50 -200 -127 -200 -149
0 -22 15 -18 52 13 95 82 214 143 346 179 130 35 324 37 447 4 89 -24 221 -83
291 -131 68 -47 164 -141 209 -204 37 -51 65 -71 65 -45 0 19 -63 103 -125
165 -208 207 -510 307 -802 264z"/>
<path d="M4298 2953 c-56 -64 3 -156 81 -124 76 32 54 141 -29 141 -23 0 -43
-7 -52 -17z m76 -19 c24 -9 21 -61 -4 -74 -27 -15 -60 4 -60 33 0 38 27 55 64
41z"/>
<path d="M4383 2778 c31 -134 37 -177 37 -275 0 -249 -79 -449 -249 -627 -117
-122 -253 -203 -416 -248 -67 -18 -107 -22 -243 -22 -116 -1 -162 -4 -162 -13
0 -30 249 -35 370 -8 394 90 679 407 731 814 18 140 -20 401 -58 401 -11 0
-14 -7 -10 -22z"/>
<path d="M1297 2153 c-4 -3 -7 -26 -7 -50 0 -23 -4 -43 -10 -43 -5 0 -10 -5
-10 -11 0 -6 10 -9 23 -7 19 3 22 10 25 61 3 52 -4 68 -21 50z"/>
<path d="M1427 2153 c-4 -3 -7 -30 -7 -60 l0 -53 40 0 c22 0 40 5 40 10 0 6
-11 10 -25 10 -16 0 -25 6 -25 15 0 9 6 15 13 14 23 -3 37 1 37 11 0 6 -11 10
-25 10 -14 0 -25 5 -25 10 0 6 11 10 25 10 16 0 25 6 25 15 0 10 -10 15 -33
15 -19 0 -37 -3 -40 -7z"/>
<path d="M1597 2153 c-4 -3 -7 -30 -7 -60 0 -40 4 -53 15 -53 8 0 15 9 15 20
0 26 17 25 40 -2 21 -27 37 -19 21 11 -7 13 -8 22 -1 26 17 10 11 44 -9 55
-22 11 -64 13 -74 3z m63 -32 c0 -11 -26 -22 -34 -14 -12 12 -5 23 14 23 11 0
20 -4 20 -9z"/>
<path d="M1803 2106 c-26 -53 -26 -83 -1 -58 15 15 65 16 70 1 2 -7 9 -10 16
-8 13 4 -27 101 -47 113 -6 4 -22 -15 -38 -48z m41 -1 c3 -8 1 -15 -4 -15 -6
0 -10 7 -10 15 0 8 2 15 4 15 2 0 6 -7 10 -15z"/>
<path d="M1988 2154 c-5 -4 -8 -31 -8 -61 0 -40 4 -53 15 -53 10 0 15 10 15
33 l0 32 26 -32 c40 -51 56 -44 52 24 -3 65 -28 89 -28 27 l0 -37 -32 37 c-18
21 -36 34 -40 30z"/>
<path d="M2317 2153 c-4 -3 -7 -30 -7 -60 l0 -53 38 0 c21 0 43 5 49 11 15 15
5 81 -15 97 -17 13 -54 16 -65 5z m53 -33 c0 -5 -7 -10 -15 -10 -8 0 -15 5
-15 10 0 6 7 10 15 10 8 0 15 -4 15 -10z m-6 -36 c23 -9 20 -24 -4 -24 -11 0
-20 7 -20 15 0 17 2 18 24 9z"/>
<path d="M2507 2153 c-4 -3 -7 -30 -7 -60 l0 -53 40 0 c22 0 40 5 40 10 0 6
-11 10 -25 10 -16 0 -25 6 -25 15 0 9 9 15 25 15 14 0 25 5 25 10 0 6 -11 10
-25 10 -14 0 -25 5 -25 10 0 6 11 10 25 10 16 0 25 6 25 15 0 10 -10 15 -33
15 -19 0 -37 -3 -40 -7z"/>
<path d="M2713 2148 c-6 -7 -19 -32 -28 -56 -18 -44 -14 -65 7 -44 7 7 21 12
33 12 12 0 26 -5 33 -12 22 -22 25 1 7 44 -25 59 -39 73 -52 56z m21 -43 c3
-9 0 -15 -9 -15 -9 0 -12 6 -9 15 4 8 7 15 9 15 2 0 5 -7 9 -15z"/>
<path d="M2877 2153 c-4 -3 -7 -30 -7 -60 0 -40 4 -53 15 -53 8 0 15 9 15 20
0 26 17 25 40 -2 21 -27 37 -19 21 11 -7 13 -8 22 -1 26 17 10 11 44 -9 55
-22 11 -64 13 -74 3z m63 -32 c0 -11 -26 -22 -34 -14 -12 12 -5 23 14 23 11 0
20 -4 20 -9z"/>
<path d="M3070 2100 l0 -60 38 0 c47 0 62 14 62 56 0 38 -29 64 -72 64 -28 0
-28 -1 -28 -60z m65 -5 c0 -23 -5 -31 -22 -33 -20 -3 -23 1 -23 33 0 32 3 36
23 33 17 -2 22 -10 22 -33z"/>
</g>
</svg>
