<?xml version="1.0" standalone="no"?>
<!DOCTYPE svg PUBLIC "-//W3C//DTD SVG 20010904//EN"
 "http://www.w3.org/TR/2001/REC-SVG-20010904/DTD/svg10.dtd">
<svg version="1.0" xmlns="http://www.w3.org/2000/svg"
 width="500.000000pt" height="500.000000pt" viewBox="0 0 500.000000 500.000000"
 preserveAspectRatio="xMidYMid meet">
<metadata>
Created by potrace 1.14, written by Peter Selinger 2001-2017
</metadata>
<g transform="translate(0.000000,500.000000) scale(0.100000,-0.100000)"
fill="#000000" stroke="none">
<path d="M1630 3580 c0 -19 7 -20 105 -20 l105 0 0 -722 c0 -724 -4 -827 -36
-875 -26 -40 -64 -58 -123 -57 -56 1 -106 19 -130 48 -12 14 -10 16 11 16 35
0 75 44 83 90 13 74 -44 130 -118 116 -44 -8 -67 -35 -74 -84 -11 -81 34 -154
121 -200 45 -23 62 -26 141 -25 152 1 249 53 302 161 l28 57 3 738 3 737 84 0
c78 0 85 2 85 20 0 20 -7 20 -295 20 -288 0 -295 0 -295 -20z"/>
<path d="M2352 2903 c3 -15 17 -18 101 -21 l97 -3 0 -714 0 -714 -97 -3 c-84
-3 -98 -6 -101 -20 -3 -17 20 -18 373 -18 303 0 391 3 452 16 194 40 307 150
334 327 27 173 -62 341 -223 422 -38 19 -85 37 -104 41 -48 9 -51 21 -6 29 58
10 154 60 196 101 60 58 90 134 90 224 1 124 -61 220 -181 282 -119 62 -166
68 -573 68 -339 0 -361 -1 -358 -17z m778 -45 c83 -42 120 -132 120 -288 0
-170 -39 -262 -129 -303 -40 -19 -65 -22 -201 -22 l-155 0 -3 318 -2 317 163
0 c149 0 167 -2 207 -22z m13 -677 c57 -28 101 -79 124 -146 15 -40 18 -84 18
-220 0 -156 -2 -174 -23 -221 -13 -28 -38 -65 -55 -82 -54 -52 -99 -62 -283
-62 l-164 0 0 373 c0 206 3 377 8 381 4 5 79 6 167 4 142 -3 165 -6 208 -27z"/>
<path d="M1350 1729 c0 -46 -2 -51 -20 -46 -11 3 -20 1 -20 -4 0 -16 48 -10
54 7 10 25 7 94 -4 94 -5 0 -10 -23 -10 -51z"/>
<path d="M1410 1725 l0 -55 38 1 c30 2 32 3 10 6 -26 4 -28 8 -28 48 0 40 2
44 28 48 22 3 20 4 -10 6 l-38 1 0 -55z"/>
<path d="M1510 1725 c0 -30 5 -55 10 -55 6 0 10 11 10 25 0 14 4 25 9 25 5 0
16 -11 25 -25 9 -14 22 -25 28 -25 6 0 3 9 -8 21 -15 17 -16 23 -5 40 14 24
-1 50 -28 48 -13 -1 -13 -2 2 -6 22 -6 18 -37 -6 -41 -12 -3 -17 3 -17 22 0
14 -4 26 -10 26 -5 0 -10 -25 -10 -55z"/>
<path d="M1661 1762 c-14 -26 -14 -42 -1 -22 9 13 11 13 20 0 16 -24 12 -33
-14 -28 -19 4 -27 -1 -35 -21 -10 -23 -10 -24 2 -8 17 21 65 23 73 2 4 -8 10
-15 15 -15 7 0 -31 93 -44 106 -3 3 -10 -3 -16 -14z"/>
<path d="M1762 1725 c1 -53 2 -54 5 -16 l4 44 45 -44 44 -43 -2 59 c-1 53 -2
54 -5 16 l-4 -44 -45 44 -44 43 2 -59z"/>
<path d="M1320 1504 l0 -55 31 3 c35 3 62 33 43 46 -6 4 -11 18 -10 32 1 15
-5 25 -14 26 -8 0 -10 -1 -2 -3 15 -6 16 -25 0 -41 -9 -9 -9 -12 0 -12 7 0 12
-9 12 -20 0 -13 -7 -20 -20 -20 -17 0 -20 7 -20 50 0 28 -4 50 -10 50 -5 0
-10 -25 -10 -56z"/>
<path d="M1430 1505 l0 -55 43 2 c36 1 38 2 10 5 -32 4 -33 6 -33 48 0 40 2
44 28 48 22 3 20 4 -10 6 l-38 1 0 -55z"/>
<path d="M1561 1542 c-14 -26 -14 -42 -1 -22 9 13 11 13 20 0 16 -24 12 -33
-14 -28 -19 4 -27 -1 -35 -21 -10 -23 -10 -24 2 -8 17 21 65 23 73 2 4 -8 10
-15 15 -15 7 0 -31 93 -44 106 -3 3 -10 -3 -16 -14z"/>
<path d="M1661 1503 c1 -32 4 -46 6 -30 5 34 16 34 41 2 11 -14 25 -25 31 -25
6 0 2 9 -9 20 -22 22 -26 40 -9 40 19 0 5 45 -16 48 -20 4 -20 3 -1 -11 22
-16 14 -37 -16 -37 -16 0 -19 5 -16 25 3 14 1 25 -3 25 -5 0 -8 -26 -8 -57z"/>
<path d="M1780 1505 l0 -55 33 0 c58 0 88 58 49 93 -10 10 -27 17 -38 16 -14
-1 -13 -3 6 -8 45 -12 36 -91 -11 -91 -16 0 -19 8 -19 50 0 28 -4 50 -10 50
-5 0 -10 -25 -10 -55z"/>
</g>
</svg>
